:SAMPLES-PER-SECOND 30
:FULLY-SPECIFIED
:DEGREES
31
root  83.5885 40.3189 -3.56767 -179.313 -86.992 -179.362
RightUpLeg  -3.83076 -7.8601 -6.249
RightLeg  4.03721 -2.10801 2.89453
RightFoot  -1.1122 -0.150164 1.59486
RightToes  4.07452e-010 0 -3.6325e-017
Spine  2.23247 -0.284356 0.702386
Spine1  6.42594 -0.529745 0.693006
HEad  -6.01666 4.12628 -2.3295
LeftShoulder1  6.6678 -9.67766 -44.0178
LeftArm  -17.0432 14.0158 -23.045
LeftForeArm  20.4615 -11.2945 -3.22054
LeftHand  -0.244104 0.0205437 5.32207
RightShoulder  5.02899 8.05602 37.4803
RightArm  -6.93626 -13.5739 25.0087
RightForeArm  5.41393 18.9905 4.77531
RightHand  -0.665177 0.625391 -12.9092
LeftUpLeg  -1.83694 6.61291 3.77121
LeftLeg  2.61778 14.9786 -4.98767
LeftFoot  -2.94498 0.00950568 0.129088
LeftToes  1.0186e-010 1.09309e-010 2.97394e-011
32
root  83.5456 40.2966 -3.60575 -178.751 -86.8721 179.843
RightUpLeg  -3.95581 -7.79423 -6.1264
RightLeg  4.97198 -2.05286 2.53489
RightFoot  -1.96352 -0.180171 2.03154
RightToes  4.07452e-010 0 -3.6325e-017
Spine  2.67152 -0.443035 0.578996
Spine1  6.61008 -0.774111 0.970303
HEad  -6.49468 4.41782 -3.02976
LeftShoulder1  7.154 -10.1772 -45.57
LeftArm  -16.1193 13.6385 -25.6684
LeftForeArm  22.6835 -11.0692 -3.53092
LeftHand  -0.244104 0.0205437 5.32207
RightShoulder  5.34274 8.39627 38.8179
RightArm  -6.26998 -14.805 28.6189
RightForeArm  5.86509 18.9205 4.81647
RightHand  -0.464975 -0.457201 -10.9398
LeftUpLeg  -1.75857 6.6251 3.78711
LeftLeg  3.18912 15.0381 -4.75275
LeftFoot  -3.33108 0.0255572 -0.0827336
LeftToes  1.0186e-010 1.09309e-010 2.97394e-011
33
root  83.4777 40.2791 -3.66341 -178.45 -86.6665 179.185
RightUpLeg  -3.869 -7.83423 -6.00392
RightLeg  5.81575 -1.85361 2.26214
RightFoot  -2.76849 -0.172711 2.04825
RightToes  4.07452e-010 0 -3.6325e-017
Spine  3.07877 -0.574926 0.572834
Spine1  7.12617 -1.00052 1.27647
HEad  -7.46302 4.68957 -3.98573
LeftShoulder1  7.6578 -10.6456 -47.2164
LeftArm  -15.0626 12.7934 -27.772
LeftForeArm  24.8276 -10.4999 -3.88651
LeftHand  -0.244104 0.0205437 5.32207
RightShoulder  5.6176 8.72781 39.8003
RightArm  -4.95149 -16.0005 32.2261
RightForeArm  6.02796 19.085 4.86999
RightHand  -0.312108 -1.48595 -9.14812
LeftUpLeg  -1.40692 6.67727 3.87642
LeftLeg  3.60101 15.0855 -4.58493
LeftFoot  -3.62187 0.041981 -0.307475
LeftToes  1.0186e-010 1.09309e-010 2.97394e-011
34
root  83.3908 40.2669 -3.74248 -178.057 -86.4023 178.417
RightUpLeg  -3.71297 -7.89084 -5.86413
RightLeg  6.59035 -1.64767 2.02409
RightFoot  -3.55227 -0.136878 1.65256
RightToes  4.07452e-010 0 -3.6325e-017
Spine  3.45456 -0.663931 0.774683
Spine1  7.65646 -1.10382 1.28493
HEad  -8.63951 4.94852 -4.82173
LeftShoulder1  8.18757 -11.2018 -48.5868
LeftArm  -13.3982 11.7339 -29.3618
LeftForeArm  25.4682 -9.75006 -4.49323
LeftHand  -0.244104 0.0205437 5.32207
RightShoulder  5.87194 8.96331 40.9044
RightArm  -3.98712 -16.9661 35.2234
RightForeArm  0.850126 18.5016 5.39095
RightHand  -0.219099 -2.54647 -8.70456
LeftUpLeg  -0.908117 6.74789 4.00193
LeftLeg  3.84729 15.1874 -4.47356
LeftFoot  -3.88574 0.0567012 -0.514361
LeftToes  1.0186e-010 1.09309e-010 2.97394e-011
35
root  83.292 40.2541 -3.83964 -177.134 -86.2437 177.256
RightUpLeg  -3.66407 -7.90054 -5.70429
RightLeg  7.36171 -1.62999 1.72792
RightFoot  -4.45139 -0.111306 1.34844
RightToes  4.07452e-010 0 -3.6325e-017
Spine  4.23608 -0.781896 0.80527
Spine1  7.13833 -1.2673 1.49395
HEad  -9.58679 5.20407 -5.63752
LeftShoulder1  8.76477 -11.8201 -49.9299
LeftArm  -10.7113 11.0507 -30.3221
LeftForeArm  26.5508 -9.58841 -5.34868
LeftHand  -0.244104 0.0205437 5.32207
RightShoulder  6.11376 9.1059 42.2066
RightArm  -5.59417 -18.1338 36.576
RightForeArm  -10.6565 17.1913 6.37572
RightHand  -0.272964 -2.74847 -11.1792
LeftUpLeg  -0.579947 6.7747 4.08725
LeftLeg  4.13164 15.2686 -4.32638
LeftFoot  -4.23456 0.0706037 -0.728519
LeftToes  1.0186e-010 1.09309e-010 2.97394e-011
36
root  83.1762 40.2374 -3.94971 -176.195 -86.2022 176.231
RightUpLeg  -3.67899 -7.88809 -5.52899
RightLeg  8.07951 -1.72276 1.44225
RightFoot  -5.53179 -0.110576 1.44332
RightToes  4.07452e-010 0 -3.6325e-017
Spine  4.3296 -1.10917 0.485625
Spine1  7.66875 -1.8181 2.22884
HEad  -10.494 5.95239 -6.55814
LeftShoulder1  8.87989 -11.9517 -50.1492
LeftArm  -7.99643 9.81173 -32.2121
LeftForeArm  31.4384 -10.35 -5.9112
LeftHand  -0.244104 0.0205437 5.32207
RightShoulder  6.01722 9.00144 41.8562
RightArm  -9.42065 -18.5234 37.7599
RightForeArm  -17.2565 16.0825 6.82926
RightHand  -0.517531 -1.25873 -14.6015
LeftUpLeg  -0.440167 6.75039 4.1588
LeftLeg  4.48402 15.2437 -4.11916
LeftFoot  -4.64489 0.0912992 -1.08079
LeftToes  1.0186e-010 1.09309e-010 2.97394e-011
